<svg xmlns="http://www.w3.org/2000/svg" viewBox="0 0 200 250" width="200" height="250">
  <defs>
    <linearGradient id="fire1" x1="0%" y1="0%" x2="100%" y2="100%">
      <stop offset="0%" style="stop-color:#ff0000;stop-opacity:1" />
      <stop offset="50%" style="stop-color:#ff4500;stop-opacity:1" />
      <stop offset="100%" style="stop-color:#ff6600;stop-opacity:1" />
    </linearGradient>
    <linearGradient id="fire2" x1="0%" y1="0%" x2="0%" y2="100%">
      <stop offset="0%" style="stop-color:#ff3300;stop-opacity:1" />
      <stop offset="100%" style="stop-color:#cc0000;stop-opacity:1" />
    </linearGradient>
  </defs>
  
  <!-- 头部装饰 凤冠 -->
  <path d="M95 35 Q85 15 75 8 Q78 18 82 28" fill="url(#fire1)" stroke="#8B0000" stroke-width="1"/>
  <path d="M100 30 Q100 10 95 2 Q98 12 100 22" fill="url(#fire1)" stroke="#8B0000" stroke-width="1"/>
  <path d="M105 35 Q115 15 125 8 Q122 18 118 28" fill="url(#fire1)" stroke="#8B0000" stroke-width="1"/>
  <circle cx="75" cy="6" r="4" fill="#ff0000"/>
  <circle cx="95" cy="2" r="3" fill="#ff4500"/>
  <circle cx="125" cy="6" r="4" fill="#ff0000"/>
  
  <!-- 头部 -->
  <ellipse cx="100" cy="45" rx="18" ry="15" fill="url(#fire1)" stroke="#8B0000" stroke-width="1.5"/>
  
  <!-- 眼睛 -->
  <ellipse cx="92" cy="42" rx="4" ry="5" fill="#1a1a1a"/>
  <ellipse cx="108" cy="42" rx="4" ry="5" fill="#1a1a1a"/>
  <circle cx="90" cy="40" r="1.5" fill="white"/>
  <circle cx="106" cy="40" r="1.5" fill="white"/>
  
  <!-- 嘴巴 -->
  <path d="M100 52 L95 62 L100 58 L105 62 Z" fill="#8B0000"/>
  
  <!-- 颈部 -->
  <path d="M88 58 Q100 70 112 58 Q105 80 100 90 Q95 80 88 58" fill="url(#fire1)" stroke="#8B0000" stroke-width="1"/>
  
  <!-- 身体 -->
  <ellipse cx="100" cy="110" rx="35" ry="40" fill="url(#fire1)" stroke="#8B0000" stroke-width="1.5"/>
  
  <!-- 胸部花纹 -->
  <path d="M80 100 Q100 90 120 100 Q100 105 80 100" fill="#ff6600" opacity="0.6"/>
  <path d="M85 110 Q100 102 115 110 Q100 115 85 110" fill="#ff6600" opacity="0.5"/>
  
  <!-- 左翅膀 -->
  <path d="M65 95 Q35 70 15 60 Q5 58 8 68 Q12 78 30 90 Q45 98 65 105" fill="url(#fire1)" stroke="#8B0000" stroke-width="1"/>
  <path d="M60 100 Q30 80 12 72 Q2 70 5 80 Q10 88 28 98 Q42 105 58 108" fill="url(#fire2)" opacity="0.8"/>
  
  <!-- 右翅膀 -->
  <path d="M135 95 Q165 70 185 60 Q195 58 192 68 Q188 78 170 90 Q155 98 135 105" fill="url(#fire1)" stroke="#8B0000" stroke-width="1"/>
  <path d="M140 100 Q170 80 188 72 Q198 70 195 80 Q190 88 172 98 Q158 105 142 108" fill="url(#fire2)" opacity="0.8"/>
  
  <!-- 左尾羽 -->
  <path d="M75 140 Q50 170 30 210 Q25 225 35 220 Q50 200 65 165 Q70 150 75 140" fill="url(#fire1)" stroke="#8B0000" stroke-width="1"/>
  <path d="M70 145 Q45 175 28 215 Q22 230 32 225 Q48 205 62 170 Q67 155 70 145" fill="url(#fire2)" opacity="0.85"/>
  
  <!-- 右尾羽 -->
  <path d="M125 140 Q150 170 170 210 Q175 225 165 220 Q150 200 135 165 Q130 150 125 140" fill="url(#fire1)" stroke="#8B0000" stroke-width="1"/>
  <path d="M130 145 Q155 175 172 215 Q178 230 168 225 Q152 205 138 170 Q133 155 130 145" fill="url(#fire2)" opacity="0.85"/>
  
  <!-- 中间尾羽 -->
  <path d="M95 145 Q85 180 75 230 Q73 240 80 238 Q90 225 95 180 Q97 160 95 145" fill="url(#fire1)" stroke="#8B0000" stroke-width="1"/>
  <path d="M100 148 Q100 185 100 235 Q100 242 105 235 Q105 185 105 148" fill="url(#fire1)" opacity="0.9"/>
  <path d="M105 145 Q115 180 125 230 Q127 240 120 238 Q110 225 105 180 Q103 160 105 145" fill="url(#fire1)" stroke="#8B0000" stroke-width="1"/>
  
  <!-- 尾羽装饰圆点 -->
  <circle cx="30" cy="215" r="6" fill="#ff0000"/>
  <circle cx="28" cy="220" r="4" fill="#ff4500"/>
  <circle cx="170" cy="215" r="6" fill="#ff0000"/>
  <circle cx="172" cy="220" r="4" fill="#ff4500"/>
  <circle cx="75" cy="235" r="5" fill="#ff0000"/>
  <circle cx="125" cy="235" r="5" fill="#ff0000"/>
  <circle cx="100" cy="240" r="6" fill="#ff4500"/>
  
  <!-- 腿 -->
  <line x1="88" y1="145" x2="85" y2="175" stroke="#8B0000" stroke-width="2.5"/>
  <line x1="112" y1="145" x2="115" y2="175" stroke="#8B0000" stroke-width="2.5"/>
  
  <!-- 爪子 -->
  <path d="M80 175 L85 175 L88 182" stroke="#8B0000" stroke-width="2" fill="none"/>
  <path d="M85 175 L85 185" stroke="#8B0000" stroke-width="2" fill="none"/>
  <path d="M120 175 L115 175 L112 182" stroke="#8B0000" stroke-width="2" fill="none"/>
  <path d="M115 175 L115 185" stroke="#8B0000" stroke-width="2" fill="none"/>
</svg>
